<svg xmlns="http://www.w3.org/2000/svg" width="666.667" height="666.667" preserveAspectRatio="xMidYMid meet" version="1.0" viewBox="0 0 500 500"><metadata>Created by potrace 1.14, written by Peter Selinger 2001-2017</metadata><g fill="#000" stroke="none"><path d="M2329 4996 c-2 -2 -33 -6 -69 -9 -255 -24 -532 -104 -788 -229 -154 -76 -234 -126 -397 -248 -103 -77 -311 -277 -381 -365 -21 -27 -42 -52 -46 -55 -4 -3 -46 -64 -93 -135 -97 -144 -205 -357 -260 -510 -34 -95 -89 -301 -101 -375 -3 -19 -10 -63 -15 -97 -18 -118 -23 -229 -23 -513 0 -254 7 -415 20 -475 2 -11 6 -31 8 -45 19 -113 69 -302 96 -365 4 -11 18 -47 31 -80 13 -33 42 -100 66 -148 l43 -88 -14 -57 c-8 -31 -18 -71 -21 -89 -3 -18 -9 -43 -15 -57 -5 -15 -8 -26 -5 -26 2 0 -1 -15 -6 -32 -15 -48 -20 -69 -26 -109 -5 -32 -2 -38 18 -45 13 -4 27 -7 32 -6 11 3 10 -1 -25 -152 -31 -132 -31 -139 -14 -151 10 -8 27 -12 39 -10 12 2 45 6 72 10 45 5 152 18 245 30 61 8 121 15 173 20 27 3 52 7 56 9 4 3 49 -31 101 -75 240 -203 556 -366 839 -435 9 -2 36 -8 61 -15 25 -6 52 -12 60 -14 38 -7 106 -19 115 -20 25 -3 122 -18 140 -22 11 -2 103 -6 205 -7 163 -3 352 10 439 29 15 3 40 8 56 10 64 11 93 18 191 46 94 27 124 37 259 91 76 30 256 122 332 170 190 117 467 357 573 494 19 25 45 58 58 72 94 111 231 349 309 537 67 163 107 304 148 525 4 20 14 102 21 165 9 80 12 628 3 646 -4 8 -4 21 1 29 5 8 6 19 2 25 -7 11 -7 8 -16 90 -18 158 -42 270 -93 430 -230 721 -794 1289 -1508 1521 -120 39 -296 79 -387 89 -24 3 -59 7 -78 11 -37 6 -425 15 -431 10z" transform="translate(0.000000,500.000000) scale(0.100000,-0.100000)"/></g></svg>